<?xml version="1.0" encoding="UTF-8"?>
<svg width="32px" height="30px" viewBox="0 0 32 30" version="1.1" xmlns="http://www.w3.org/2000/svg" xmlns:xlink="http://www.w3.org/1999/xlink">
    <title>Button Big</title>
    <defs>
        <path d="M12,0.48 C12.492081,0.48 12.844081,0.773064448 13.056,1.35919334 L15.6681905,6.67687691 C15.8304247,7.04073322 15.9670326,7.25667384 16.0780143,7.32469875 C16.1789289,7.45736665 16.4193621,7.54514174 16.7993137,7.58802401 L23.04,8.50350479 C23.68,8.59850814 24,8.95507811 24,9.57321469 C23.9839803,9.79594292 23.9039803,9.99444317 23.76,10.1687154 L18.9433667,14.8931932 C18.7969199,15.0626775 18.7084428,15.2237891 18.6779353,15.3765282 C18.6436312,15.4887823 18.6436312,15.6500416 18.6779353,15.8603061 L19.7553735,22.1504374 C19.8742413,22.6148219 19.7691168,22.988785 19.44,23.2723268 C19.0810615,23.5736108 18.6810615,23.6000203 18.24,23.3515554 L12.7531403,20.454902 C12.5120748,20.3051056 12.2975591,20.2177244 12.1095934,20.1927583 L12,20.1855873 L11.8904066,20.1927583 C11.740034,20.2127312 11.5726695,20.2726497 11.388313,20.372514 L11.2468597,20.454902 L5.76,23.3515554 C5.31893846,23.6000203 4.91893846,23.5736108 4.56,23.2723268 C4.26745176,23.0202897 4.15188508,22.6968085 4.21329994,22.3018833 L4.24462652,22.1504374 L5.32206474,15.8603061 C5.35636875,15.6500416 5.35636875,15.4887823 5.32206474,15.3765282 C5.29765873,15.2543369 5.23615216,15.1267872 5.13754501,14.9938791 L5.0566333,14.8931932 L0.24,10.1687154 C0.0960197343,9.99444317 0.0160197343,9.79594292 0,9.57321469 C0,9.00262707 0.272662722,8.65491279 0.817988166,8.53007184 L0.96,8.50350479 L7.20068625,7.58802401 C7.5806379,7.54514174 7.82107106,7.45736665 7.92198572,7.32469875 C8.01711286,7.26639168 8.13106746,7.09941185 8.26384952,6.82375927 L8.33180951,6.67687691 L10.944,1.35919334 C11.138259,0.821908522 11.4502251,0.530879244 11.8798981,0.486105509 L12,0.48 Z M12,3.56726582 L11.999,3.56826582 L9.98256077,7.67884862 L9.8863777,7.87590302 C9.68260188,8.26148483 9.41036806,8.59590479 9.06967624,8.87916288 C8.65263983,9.21873183 8.10244358,9.42512899 7.41908748,9.49835435 L7.41908748,9.49835435 L2.964,10.1508853 L6.07247883,13.1993916 L6.26101911,13.3767478 C6.74103347,13.8494358 7.03897007,14.3200281 7.15482893,14.7885248 C7.29322094,15.2865449 7.30552574,15.7968574 7.19174334,16.3194624 L7.19174334,16.3194624 L6.41798346,20.8325864 L10.561751,18.6365655 L10.7901056,18.5292179 C11.1745085,18.3654138 11.5779715,18.2771528 12.0004944,18.2644348 L12.0004944,18.2644348 L12.2512266,18.2811308 C12.6661255,18.324066 13.0619644,18.4425442 13.4387434,18.6365655 L13.4387434,18.6365655 L17.5825109,20.8325864 L16.8087511,16.3194624 C16.6949687,15.7968574 16.7072735,15.2865449 16.8456655,14.7885248 C16.9760067,14.261466 17.3367901,13.731755 17.9280156,13.1993916 L17.9280156,13.1993916 L21.0364944,10.1508853 L16.5814069,9.49835435 C15.8980508,9.42512899 15.3478546,9.21873183 14.9308182,8.87916288 C14.5333444,8.54869511 14.2290495,8.14859035 14.0179336,7.67884862 L14.0179336,7.67884862 L12,3.56826582 L12,3.56726582 Z" id="path-1"></path>
        <filter x="-27.1%" y="-23.9%" width="154.2%" height="156.4%" filterUnits="objectBoundingBox" id="filter-2">
            <feOffset dx="0" dy="1" in="SourceAlpha" result="shadowOffsetOuter1"></feOffset>
            <feGaussianBlur stdDeviation="2" in="shadowOffsetOuter1" result="shadowBlurOuter1"></feGaussianBlur>
            <feColorMatrix values="0 0 0 0 0   0 0 0 0 0   0 0 0 0 0  0 0 0 0.4 0" type="matrix" in="shadowBlurOuter1"></feColorMatrix>
        </filter>
    </defs>
    <g id="Design" stroke="none" stroke-width="1" fill="none" fill-rule="evenodd">
        <g id="Recommendation" transform="translate(-323.000000, -414.000000)">
            <g id="Spot-Details" transform="translate(12.000000, 400.000000)">
                <g id="Button-Big" transform="translate(315.000000, 16.000000)">
                    <g id="Shadow" fill="black" fill-opacity="1">
                        <use filter="url(#filter-2)" xlink:href="#path-1"></use>
                    </g>
                    <path d="M12,0.48 C12.492081,0.48 12.844081,0.773064448 13.056,1.35919334 L15.6681905,6.67687691 C15.8304247,7.04073322 15.9670326,7.25667384 16.0780143,7.32469875 C16.1789289,7.45736665 16.4193621,7.54514174 16.7993137,7.58802401 L23.04,8.50350479 C23.68,8.59850814 24,8.95507811 24,9.57321469 C23.9839803,9.79594292 23.9039803,9.99444317 23.76,10.1687154 L18.9433667,14.8931932 C18.7969199,15.0626775 18.7084428,15.2237891 18.6779353,15.3765282 C18.6436312,15.4887823 18.6436312,15.6500416 18.6779353,15.8603061 L19.7553735,22.1504374 C19.8742413,22.6148219 19.7691168,22.988785 19.44,23.2723268 C19.0810615,23.5736108 18.6810615,23.6000203 18.24,23.3515554 L12.7531403,20.454902 C12.5120748,20.3051056 12.2975591,20.2177244 12.1095934,20.1927583 L12,20.1855873 L11.8904066,20.1927583 C11.740034,20.2127312 11.5726695,20.2726497 11.388313,20.372514 L11.2468597,20.454902 L5.76,23.3515554 C5.31893846,23.6000203 4.91893846,23.5736108 4.56,23.2723268 C4.26745176,23.0202897 4.15188508,22.6968085 4.21329994,22.3018833 L4.24462652,22.1504374 L5.32206474,15.8603061 C5.35636875,15.6500416 5.35636875,15.4887823 5.32206474,15.3765282 C5.29765873,15.2543369 5.23615216,15.1267872 5.13754501,14.9938791 L5.0566333,14.8931932 L0.24,10.1687154 C0.0960197343,9.99444317 0.0160197343,9.79594292 0,9.57321469 C0,9.00262707 0.272662722,8.65491279 0.817988166,8.53007184 L0.96,8.50350479 L7.20068625,7.58802401 C7.5806379,7.54514174 7.82107106,7.45736665 7.92198572,7.32469875 C8.01711286,7.26639168 8.13106746,7.09941185 8.26384952,6.82375927 L8.33180951,6.67687691 L10.944,1.35919334 C11.138259,0.821908522 11.4502251,0.530879244 11.8798981,0.486105509 L12,0.48 Z M12,3.56726582 L11.999,3.56826582 L9.98256077,7.67884862 L9.8863777,7.87590302 C9.68260188,8.26148483 9.41036806,8.59590479 9.06967624,8.87916288 C8.65263983,9.21873183 8.10244358,9.42512899 7.41908748,9.49835435 L7.41908748,9.49835435 L2.964,10.1508853 L6.07247883,13.1993916 L6.26101911,13.3767478 C6.74103347,13.8494358 7.03897007,14.3200281 7.15482893,14.7885248 C7.29322094,15.2865449 7.30552574,15.7968574 7.19174334,16.3194624 L7.19174334,16.3194624 L6.41798346,20.8325864 L10.561751,18.6365655 L10.7901056,18.5292179 C11.1745085,18.3654138 11.5779715,18.2771528 12.0004944,18.2644348 L12.0004944,18.2644348 L12.2512266,18.2811308 C12.6661255,18.324066 13.0619644,18.4425442 13.4387434,18.6365655 L13.4387434,18.6365655 L17.5825109,20.8325864 L16.8087511,16.3194624 C16.6949687,15.7968574 16.7072735,15.2865449 16.8456655,14.7885248 C16.9760067,14.261466 17.3367901,13.731755 17.9280156,13.1993916 L17.9280156,13.1993916 L21.0364944,10.1508853 L16.5814069,9.49835435 C15.8980508,9.42512899 15.3478546,9.21873183 14.9308182,8.87916288 C14.5333444,8.54869511 14.2290495,8.14859035 14.0179336,7.67884862 L14.0179336,7.67884862 L12,3.56826582 L12,3.56726582 Z" id="Colour" fill="#FFFFFF"></path>
                </g>
            </g>
        </g>
    </g>
</svg>