<?xml version="1.0" encoding="UTF-8"?>
<svg width="25px" height="24px" viewBox="0 0 25 24" version="1.1" xmlns="http://www.w3.org/2000/svg" xmlns:xlink="http://www.w3.org/1999/xlink">
    <title>Comment</title>
    <g id="Design" stroke="none" stroke-width="1" fill="none" fill-rule="evenodd">
        <g id="Recommendation" transform="translate(-133.000000, -484.000000)">
            <g id="Button-Bar" transform="translate(48.000000, 482.000000)">
                <g id="Comment" transform="translate(85.227273, 2.000000)">
                    <path d="M12,0 C18.627417,0 24,5.372583 24,12 C24,14.2381892 23.3872432,16.3332614 22.3203348,18.1266114 C23.2133271,20.74187 23.6598233,22.0603637 23.6598233,22.0820923 C23.8468882,22.6596026 23.7776264,23.1140906 23.4520381,23.4455561 C23.2302856,23.7719893 22.7727113,23.8448039 22.0793154,23.664 C21.2417981,23.3758826 19.9220789,22.929273 18.120158,22.3241713 C16.3282361,23.388712 14.235505,24 12,24 C5.372583,24 0,18.627417 0,12 C0,5.372583 5.372583,0 12,0 Z M12,1.8 C6.43296972,1.8 1.92,6.31296972 1.92,11.88 C1.92,17.4470303 6.43296972,21.96 12,21.96 C14.15248,21.96 16.1473816,21.2853267 17.7847712,20.1359138 C20.1189028,20.901347 21.3979185,21.3184666 21.6218182,21.3872727 C21.5742771,21.2346742 21.1580705,19.9369159 20.3731983,17.4939978 C21.4510854,15.8895176 22.08,13.9582042 22.08,11.88 C22.08,6.31296972 17.5670303,1.8 12,1.8 Z" id="Shadow"></path>
                    <path d="M12,0 C18.627417,0 24,5.372583 24,12 C24,14.2381892 23.3872432,16.3332614 22.3203348,18.1266114 C23.2133271,20.74187 23.6598233,22.0603637 23.6598233,22.0820923 C23.8468882,22.6596026 23.7776264,23.1140906 23.4520381,23.4455561 C23.2302856,23.7719893 22.7727113,23.8448039 22.0793154,23.664 C21.2417981,23.3758826 19.9220789,22.929273 18.120158,22.3241713 C16.3282361,23.388712 14.235505,24 12,24 C5.372583,24 0,18.627417 0,12 C0,5.372583 5.372583,0 12,0 Z M12,1.8 C6.43296972,1.8 1.92,6.31296972 1.92,11.88 C1.92,17.4470303 6.43296972,21.96 12,21.96 C14.15248,21.96 16.1473816,21.2853267 17.7847712,20.1359138 C20.1189028,20.901347 21.3979185,21.3184666 21.6218182,21.3872727 C21.5742771,21.2346742 21.1580705,19.9369159 20.3731983,17.4939978 C21.4510854,15.8895176 22.08,13.9582042 22.08,11.88 C22.08,6.31296972 17.5670303,1.8 12,1.8 Z" id="Colour" fill="#000000"></path>
                </g>
            </g>
        </g>
    </g>
</svg>