<?xml version="1.0" encoding="UTF-8"?>
<svg width="100px" height="100px" viewBox="0 0 100 100" version="1.1" xmlns="http://www.w3.org/2000/svg" xmlns:xlink="http://www.w3.org/1999/xlink">
    <title>Heart Border</title>
    <g id="Design" stroke="none" stroke-width="1" fill="none" fill-rule="evenodd">
        <g id="Heart-Border" fill="#000000">
            <path d="M88.0814414,12.928491 C102.875457,25.9654751 103.897071,42.0365366 91.1462833,61.1416755 C86.7430107,66.4483327 82.3942165,70.9255227 78.0999008,74.5732457 C73.805585,78.2209686 67.1167217,83.1195016 58.033311,89.2688449 C54.5424998,91.7562816 51.8647295,93 50,93 L49.8041967,92.9955634 C47.9496299,92.9127475 45.3371274,91.6705079 41.966689,89.2688449 C32.8832783,83.1195016 26.194415,78.2209686 21.9000992,74.5732457 C17.6057835,70.9255227 13.2569893,66.4483327 8.85371675,61.1416755 C-3.89707124,42.0365366 -2.87545729,25.9654751 11.9185586,12.928491 C25.0318426,4.79237958 37.590842,5.03061362 49.5955566,13.6431932 L50,13.9366765 C62.1270033,5.03702443 74.8208171,4.70096259 88.0814414,12.928491 Z M73.5471301,15.4458949 C64.3981106,13.7044978 56.5490672,16.2878199 50,23.1958612 L50,23.1958612 L49.6600958,22.8424055 C43.1798897,16.2000254 35.4441477,13.7345219 26.4528699,15.4458949 C16.9865233,17.7825482 11.0191431,23.5650488 8.55072921,32.7933968 C6.49987179,43.4161113 10.1768967,53.2125818 19.5818039,62.1828082 C23.5381831,66.4284607 29.910041,71.7200094 38.6973776,78.0574545 L38.6973776,78.0574545 L50,85.0779407 L61.3026224,78.0574545 C70.089959,71.7200094 76.4618169,66.4284607 80.4181961,62.1828082 C89.8231033,53.2125818 93.5001282,43.4161113 91.4492708,32.7933968 C88.9808569,23.5650488 83.0134767,17.7825482 73.5471301,15.4458949 Z" id="Shadow"></path>
            <path d="M88.0814414,12.928491 C102.875457,25.9654751 103.897071,42.0365366 91.1462833,61.1416755 C86.7430107,66.4483327 82.3942165,70.9255227 78.0999008,74.5732457 C73.805585,78.2209686 67.1167217,83.1195016 58.033311,89.2688449 C54.5424998,91.7562816 51.8647295,93 50,93 L49.8041967,92.9955634 C47.9496299,92.9127475 45.3371274,91.6705079 41.966689,89.2688449 C32.8832783,83.1195016 26.194415,78.2209686 21.9000992,74.5732457 C17.6057835,70.9255227 13.2569893,66.4483327 8.85371675,61.1416755 C-3.89707124,42.0365366 -2.87545729,25.9654751 11.9185586,12.928491 C25.0318426,4.79237958 37.590842,5.03061362 49.5955566,13.6431932 L50,13.9366765 C62.1270033,5.03702443 74.8208171,4.70096259 88.0814414,12.928491 Z M73.5471301,15.4458949 C64.3981106,13.7044978 56.5490672,16.2878199 50,23.1958612 L50,23.1958612 L49.6600958,22.8424055 C43.1798897,16.2000254 35.4441477,13.7345219 26.4528699,15.4458949 C16.9865233,17.7825482 11.0191431,23.5650488 8.55072921,32.7933968 C6.49987179,43.4161113 10.1768967,53.2125818 19.5818039,62.1828082 C23.5381831,66.4284607 29.910041,71.7200094 38.6973776,78.0574545 L38.6973776,78.0574545 L50,85.0779407 L61.3026224,78.0574545 C70.089959,71.7200094 76.4618169,66.4284607 80.4181961,62.1828082 C89.8231033,53.2125818 93.5001282,43.4161113 91.4492708,32.7933968 C88.9808569,23.5650488 83.0134767,17.7825482 73.5471301,15.4458949 Z" id="Colour"></path>
        </g>
    </g>
</svg>