<?xml version="1.0" encoding="UTF-8"?>
<svg width="29px" height="26px" viewBox="0 0 29 26" version="1.1" xmlns="http://www.w3.org/2000/svg" xmlns:xlink="http://www.w3.org/1999/xlink">
    <title>Like</title>
    <g id="Design" stroke="none" stroke-width="1" fill="none" fill-rule="evenodd">
        <g id="Recommendation" transform="translate(-216.000000, -483.000000)">
            <g id="Button-Bar" transform="translate(48.000000, 482.000000)">
                <g id="Like" transform="translate(168.112540, 0.000000)">
                    <path d="M24.6628036,3.61997749 C28.805128,7.27033302 29.0911799,11.7702302 25.5209593,17.1196692 C24.288043,18.6055332 23.0703806,19.8591464 21.8679722,20.8805088 C20.6655638,21.9018712 18.7926821,23.2734605 16.2493271,24.9952766 C15.2719,25.6917589 14.5221243,26.04 14,26.04 L13.8754686,26.0338182 C13.3611786,25.9843638 12.6529133,25.6381833 11.7506729,24.9952766 C9.20731792,23.2734605 7.33443621,21.9018712 6.13202779,20.8805088 C4.92961937,19.8591464 3.711957,18.6055332 2.47904069,17.1196692 C-1.09117995,11.7702302 -0.80512804,7.27033302 3.33719641,3.61997749 C7.05017121,1.31626953 10.6044391,1.41036684 14,3.90226943 L14,3.90226943 C17.3955609,1.41036684 20.9498288,1.31626953 24.6628036,3.61997749 Z M20.5931964,4.32485058 C18.031471,3.83725939 15.8337388,4.56058957 14,6.49484113 L14,6.49484113 C12.1662612,4.56058957 9.96852904,3.83725939 7.40680358,4.32485058 C4.75622652,4.97911348 3.08536006,6.59821365 2.39420418,9.1821511 C1.8199641,12.1565112 2.84953107,14.8995229 5.48290509,17.4111863 C6.59069127,18.599969 8.37481148,20.0816026 10.8352657,21.8560873 L14,23.8218234 L17.1647343,21.8560873 C19.6251885,20.0816026 21.4093087,18.599969 22.5170949,17.4111863 C25.1504689,14.8995229 26.1800359,12.1565112 25.6057958,9.1821511 C24.9146399,6.59821365 23.2437735,4.97911348 20.5931964,4.32485058 Z" id="Shadow"></path>
                    <path d="M24.6628036,3.61997749 C28.805128,7.27033302 29.0911799,11.7702302 25.5209593,17.1196692 C24.288043,18.6055332 23.0703806,19.8591464 21.8679722,20.8805088 C20.6655638,21.9018712 18.7926821,23.2734605 16.2493271,24.9952766 C15.2719,25.6917589 14.5221243,26.04 14,26.04 L13.8754686,26.0338182 C13.3611786,25.9843638 12.6529133,25.6381833 11.7506729,24.9952766 C9.20731792,23.2734605 7.33443621,21.9018712 6.13202779,20.8805088 C4.92961937,19.8591464 3.711957,18.6055332 2.47904069,17.1196692 C-1.09117995,11.7702302 -0.80512804,7.27033302 3.33719641,3.61997749 C7.05017121,1.31626953 10.6044391,1.41036684 14,3.90226943 L14,3.90226943 C17.3955609,1.41036684 20.9498288,1.31626953 24.6628036,3.61997749 Z M20.5931964,4.32485058 C18.031471,3.83725939 15.8337388,4.56058957 14,6.49484113 L14,6.49484113 C12.1662612,4.56058957 9.96852904,3.83725939 7.40680358,4.32485058 C4.75622652,4.97911348 3.08536006,6.59821365 2.39420418,9.1821511 C1.8199641,12.1565112 2.84953107,14.8995229 5.48290509,17.4111863 C6.59069127,18.599969 8.37481148,20.0816026 10.8352657,21.8560873 L14,23.8218234 L17.1647343,21.8560873 C19.6251885,20.0816026 21.4093087,18.599969 22.5170949,17.4111863 C25.1504689,14.8995229 26.1800359,12.1565112 25.6057958,9.1821511 C24.9146399,6.59821365 23.2437735,4.97911348 20.5931964,4.32485058 Z" id="Colour" fill="#000000"></path>
                </g>
            </g>
        </g>
    </g>
</svg>