<?xml version="1.0" encoding="UTF-8"?>
<svg width="100px" height="100px" viewBox="0 0 100 100" version="1.1" xmlns="http://www.w3.org/2000/svg" xmlns:xlink="http://www.w3.org/1999/xlink">
    <title>Map Border</title>
    <g id="Design" stroke="none" stroke-width="1" fill="none" fill-rule="evenodd">
        <g id="Map-Border" fill="#000000">
            <path d="M33.33,-0.000298417867 C34.1881655,-0.000298417867 35.2849982,0.392547384 36.6204979,1.17823899 L63.8828801,14.632777 C64.983499,15.2325921 65.9132792,15.5132717 66.6722207,15.4748156 C67.4535123,15.4748156 68.4164105,15.1073889 69.5609152,14.3725356 L93.9998107,0.550321203 C95.384679,-0.226353152 96.8041476,-0.172457636 98.2582164,0.712007751 C99.4199115,1.53675456 100.000759,2.71625569 100.000759,4.25051113 L100.000759,81.0122985 C100.000759,82.0969246 99.8340455,82.9070816 99.5006185,83.4427694 C99.0544322,84.2698622 98.2644899,84.9279637 97.1307917,85.417074 L69.9325011,98.8391395 C68.6733871,99.5347101 67.6818477,99.9216636 66.957883,100 C66.0861376,100.031817 65.2426651,99.8126549 64.4274654,99.3425143 L36.0087637,85.3136284 C35.0254329,84.7523539 34.1600872,84.486138 33.4127265,84.5149808 C32.5678211,84.5414755 31.7621296,84.8076914 30.9956522,85.3136284 L9.07633161,97.7245909 C6.64946605,99.2415303 4.95771643,100 4.00108274,100 C1.4984296,99.7525133 0.164735352,98.3772639 -1.95754437e-12,95.8742517 L-1.95754437e-12,18.9299301 C-0.0480888393,17.8297506 0.18478421,16.9317393 0.698619149,16.2358961 C1.1219864,15.5598805 1.89053132,14.9883379 3.0042539,14.5212683 L30.0079447,1.20155703 C31.3606448,0.400320064 32.4679966,-0.000298417867 33.33,-0.000298417867 Z M92,10.9963894 L70.67,22.6682452 L70.67,89.67 L92,79 L92,10.9963894 Z M37.33,10.4157767 L37.33,77.2849445 L62.67,89.67 L62.67,22.67 L37.33,10.4157767 Z M29.33,10.434784 L8,21 L8,89 L29.33,77.3281223 L29.33,10.434784 Z" id="Shadow"></path>
            <path d="M33.33,-0.000298417867 C34.1881655,-0.000298417867 35.2849982,0.392547384 36.6204979,1.17823899 L63.8828801,14.632777 C64.983499,15.2325921 65.9132792,15.5132717 66.6722207,15.4748156 C67.4535123,15.4748156 68.4164105,15.1073889 69.5609152,14.3725356 L93.9998107,0.550321203 C95.384679,-0.226353152 96.8041476,-0.172457636 98.2582164,0.712007751 C99.4199115,1.53675456 100.000759,2.71625569 100.000759,4.25051113 L100.000759,81.0122985 C100.000759,82.0969246 99.8340455,82.9070816 99.5006185,83.4427694 C99.0544322,84.2698622 98.2644899,84.9279637 97.1307917,85.417074 L69.9325011,98.8391395 C68.6733871,99.5347101 67.6818477,99.9216636 66.957883,100 C66.0861376,100.031817 65.2426651,99.8126549 64.4274654,99.3425143 L36.0087637,85.3136284 C35.0254329,84.7523539 34.1600872,84.486138 33.4127265,84.5149808 C32.5678211,84.5414755 31.7621296,84.8076914 30.9956522,85.3136284 L9.07633161,97.7245909 C6.64946605,99.2415303 4.95771643,100 4.00108274,100 C1.4984296,99.7525133 0.164735352,98.3772639 -1.98596434e-12,95.8742517 L-1.98596434e-12,18.9299301 C-0.0480888393,17.8297506 0.18478421,16.9317393 0.698619149,16.2358961 C1.1219864,15.5598805 1.89053132,14.9883379 3.0042539,14.5212683 L30.0079447,1.20155703 C31.3606448,0.400320064 32.4679966,-0.000298417867 33.33,-0.000298417867 Z M92,10.9963894 L70.67,22.6682452 L70.67,89.67 L92,79 L92,10.9963894 Z M37.33,10.4157767 L37.33,77.2849445 L62.67,89.67 L62.67,22.67 L37.33,10.4157767 Z M29.33,10.434784 L8,21 L8,89 L29.33,77.3281223 L29.33,10.434784 Z" id="Colour"></path>
        </g>
    </g>
</svg>