<?xml version="1.0" encoding="UTF-8"?>
<svg width="24px" height="24px" viewBox="0 0 24 24" version="1.1" xmlns="http://www.w3.org/2000/svg" xmlns:xlink="http://www.w3.org/1999/xlink">
    <title>Map</title>
    <g id="Design" stroke="none" stroke-width="1" fill="none" fill-rule="evenodd">
        <g id="Recommendation" transform="translate(-48.000000, -484.000000)">
            <g id="Button-Bar" transform="translate(48.000000, 482.000000)">
                <g id="Map" transform="translate(0.000000, 2.000000)">
                    <path d="M7.9992,-7.16202881e-05 C8.20515973,-7.16202881e-05 8.46839956,0.0942113722 8.78891949,0.282777357 L15.3318912,3.51186649 C15.5960398,3.65582211 15.819187,3.7231852 16.001333,3.71395575 C16.1888429,3.71395575 16.4199385,3.62577334 16.6946197,3.44940854 L22.5599546,0.132077089 C22.892323,-0.0543247564 23.2329954,-0.0413898325 23.5819719,0.17088186 C23.8607788,0.368821094 24.0001822,0.651901364 24.0001822,1.02012267 L24.0001822,19.4429517 C24.0001822,19.7032619 23.9601709,19.8976996 23.8801484,20.0262647 C23.7730637,20.2247669 23.5834776,20.3827113 23.31139,20.5000978 L16.7838003,23.7213935 C16.4816129,23.8883304 16.2436435,23.9811993 16.0698919,24 C15.860673,24.007636 15.6582396,23.9550372 15.4625917,23.8422034 L8.64210328,20.4752708 C8.4061039,20.3405649 8.19842092,20.2766731 8.01905437,20.2835954 C7.81627706,20.2899541 7.62291111,20.3538459 7.43895653,20.4752708 L2.17831959,23.4539018 C1.59587185,23.8179673 1.18985194,24 0.960259858,24 C0.359623104,23.9406032 0.0395364845,23.6105433 -4.69810605e-13,23.0098204 L-4.69810605e-13,4.54318323 C-0.0115413214,4.27914015 0.0443482105,4.06361743 0.167668596,3.89661507 C0.269276737,3.73437132 0.453727517,3.59720109 0.721020936,3.48510438 L7.20190672,0.288373687 C7.52655475,0.0960768155 7.79231917,-7.16202881e-05 7.9992,-7.16202881e-05 Z M22.08,2.63913346 L16.9608,5.44037885 L16.9608,21.5208 L22.08,18.96 L22.08,2.63913346 Z M8.9592,2.4997864 L8.9592,18.5483867 L15.0408,21.5208 L15.0408,5.4408 L8.9592,2.4997864 Z M7.0392,2.50434816 L1.92,5.04 L1.92,21.36 L7.0392,18.5587493 L7.0392,2.50434816 Z" id="Shadow"></path>
                    <path d="M7.9992,-7.16202881e-05 C8.20515973,-7.16202881e-05 8.46839956,0.0942113722 8.78891949,0.282777357 L15.3318912,3.51186649 C15.5960398,3.65582211 15.819187,3.7231852 16.001333,3.71395575 C16.1888429,3.71395575 16.4199385,3.62577334 16.6946197,3.44940854 L22.5599546,0.132077089 C22.892323,-0.0543247564 23.2329954,-0.0413898325 23.5819719,0.17088186 C23.8607788,0.368821094 24.0001822,0.651901364 24.0001822,1.02012267 L24.0001822,19.4429517 C24.0001822,19.7032619 23.9601709,19.8976996 23.8801484,20.0262647 C23.7730637,20.2247669 23.5834776,20.3827113 23.31139,20.5000978 L16.7838003,23.7213935 C16.4816129,23.8883304 16.2436435,23.9811993 16.0698919,24 C15.860673,24.007636 15.6582396,23.9550372 15.4625917,23.8422034 L8.64210328,20.4752708 C8.4061039,20.3405649 8.19842092,20.2766731 8.01905437,20.2835954 C7.81627706,20.2899541 7.62291111,20.3538459 7.43895653,20.4752708 L2.17831959,23.4539018 C1.59587185,23.8179673 1.18985194,24 0.960259858,24 C0.359623104,23.9406032 0.0395364845,23.6105433 -4.76631538e-13,23.0098204 L-4.76631538e-13,4.54318323 C-0.0115413214,4.27914015 0.0443482105,4.06361743 0.167668596,3.89661507 C0.269276737,3.73437132 0.453727517,3.59720109 0.721020936,3.48510438 L7.20190672,0.288373687 C7.52655475,0.0960768155 7.79231917,-7.16202881e-05 7.9992,-7.16202881e-05 Z M22.08,2.63913346 L16.9608,5.44037885 L16.9608,21.5208 L22.08,18.96 L22.08,2.63913346 Z M8.9592,2.4997864 L8.9592,18.5483867 L15.0408,21.5208 L15.0408,5.4408 L8.9592,2.4997864 Z M7.0392,2.50434816 L1.92,5.04 L1.92,21.36 L7.0392,18.5587493 L7.0392,2.50434816 Z" id="Colour" fill="#000000"></path>
                </g>
            </g>
        </g>
    </g>
</svg>