<?xml version="1.0" encoding="UTF-8"?>
<svg width="100px" height="100px" viewBox="0 0 100 100" version="1.1" xmlns="http://www.w3.org/2000/svg" xmlns:xlink="http://www.w3.org/1999/xlink">
    <title>Options</title>
    <g id="Design" stroke="none" stroke-width="1" fill="none" fill-rule="evenodd">
        <g id="Options">
            <path d="M10,60 C15.5228475,60 20,55.5228475 20,50 C20,44.4771525 15.5228475,40 10,40 C4.4771525,40 0,44.4771525 0,50 C0,55.5228475 4.4771525,60 10,60 Z M50,60 C55.5228475,60 60,55.5228475 60,50 C60,44.4771525 55.5228475,40 50,40 C44.4771525,40 40,44.4771525 40,50 C40,55.5228475 44.4771525,60 50,60 Z M90,60 C95.5228475,60 100,55.5228475 100,50 C100,44.4771525 95.5228475,40 90,40 C84.4771525,40 80,44.4771525 80,50 C80,55.5228475 84.4771525,60 90,60 Z" id="Shadow"></path>
            <path d="M10,60 C15.5228475,60 20,55.5228475 20,50 C20,44.4771525 15.5228475,40 10,40 C4.4771525,40 0,44.4771525 0,50 C0,55.5228475 4.4771525,60 10,60 Z M50,60 C55.5228475,60 60,55.5228475 60,50 C60,44.4771525 55.5228475,40 50,40 C44.4771525,40 40,44.4771525 40,50 C40,55.5228475 44.4771525,60 50,60 Z M90,60 C95.5228475,60 100,55.5228475 100,50 C100,44.4771525 95.5228475,40 90,40 C84.4771525,40 80,44.4771525 80,50 C80,55.5228475 84.4771525,60 90,60 Z" id="Colour" fill="#000000"></path>
        </g>
    </g>
</svg>