<?xml version="1.0" encoding="UTF-8"?>
<svg width="100px" height="100px" viewBox="0 0 100 100" version="1.1" xmlns="http://www.w3.org/2000/svg" xmlns:xlink="http://www.w3.org/1999/xlink">
    <title>Paper Plane Border</title>
    <g id="Design" stroke="none" stroke-width="1" fill="none" fill-rule="evenodd">
        <g id="Paper-Plane-Border" fill="#000000">
            <path d="M98.5,1.5 C100.638279,3.12285159 100.471612,6.62285159 98,12 L63.97788,96.0019499 C62.7895402,98.6673166 61.1302468,100 59,100 C57.1763208,100 55.6409574,99.3374481 54.3939098,98.0123442 L35.9695779,79.569964 C33.63218,77.3714176 32.5342013,75.4328823 32.6756418,73.754358 C32.6756418,72.1296085 33.4516122,70.5448225 35.003553,69 L48,52 L31,65 C28.5693057,66.8142902 26.5760287,67.551691 25.020169,67.2122026 C23.453907,66.7745738 21.3792639,65.163774 18.7962399,62.3798032 L3.00526128,46.573356 C1.00175376,44.5216741 3.29691829e-12,42.6645888 3.29691829e-12,41.0021003 C3.29691829e-12,38.2121416 3.66589942,35.5447748 10.9976983,33 L88.0042861,2 C92.9006197,-0.471449812 96.399191,-0.638116479 98.5,1.5 Z M92,8 L7.75915325,41.7000389 L26.0005343,59.9070017 L77.5084641,22.4587411 L39.976835,73.6740951 L58.159403,92.0216175 L92,8 Z" id="Shadow"></path>
            <path d="M98.5,1.5 C100.638279,3.12285159 100.471612,6.62285159 98,12 L63.97788,96.0019499 C62.7895402,98.6673166 61.1302468,100 59,100 C57.1763208,100 55.6409574,99.3374481 54.3939098,98.0123442 L35.9695779,79.569964 C33.63218,77.3714176 32.5342013,75.4328823 32.6756418,73.754358 C32.6756418,72.1296085 33.4516122,70.5448225 35.003553,69 L48,52 L31,65 C28.5693057,66.8142902 26.5760287,67.551691 25.020169,67.2122026 C23.453907,66.7745738 21.3792639,65.163774 18.7962399,62.3798032 L3.00526128,46.573356 C1.00175376,44.5216741 3.29691829e-12,42.6645888 3.29691829e-12,41.0021003 C3.29691829e-12,38.2121416 3.66589942,35.5447748 10.9976983,33 L88.0042861,2 C92.9006197,-0.471449812 96.399191,-0.638116479 98.5,1.5 Z M92,8 L7.75915325,41.7000389 L26.0005343,59.9070017 L77.5084641,22.4587411 L39.976835,73.6740951 L58.159403,92.0216175 L92,8 Z" id="Colour"></path>
        </g>
    </g>
</svg>