<?xml version="1.0" encoding="UTF-8"?>
<svg width="24px" height="24px" viewBox="0 0 24 24" version="1.1" xmlns="http://www.w3.org/2000/svg" xmlns:xlink="http://www.w3.org/1999/xlink">
    <title>Share</title>
    <g id="Design" stroke="none" stroke-width="1" fill="none" fill-rule="evenodd">
        <g id="Recommendation" transform="translate(-303.000000, -484.000000)">
            <g id="Button-Bar" transform="translate(48.000000, 482.000000)">
                <g id="Share" transform="translate(255.000000, 2.000000)">
                    <path d="M23.64,0.36 C24.1531869,0.749484381 24.1131869,1.58948438 23.52,2.88 L15.3546912,23.040468 C15.0694896,23.680156 14.6712592,24 14.16,24 C13.722317,24 13.3538298,23.8409875 13.0545384,23.5229626 L8.63269869,19.0967914 C8.07172321,18.5691402 7.80820832,18.1038918 7.84215403,17.7010459 C7.84215403,17.311106 8.02838693,16.9307574 8.40085272,16.56 L11.52,12.48 L7.44,15.6 C6.85663337,16.0354296 6.37824689,16.2124058 6.00484057,16.1309286 C5.62893767,16.0258977 5.13102334,15.6393058 4.51109757,14.9711528 L0.721262707,11.1776054 C0.240420902,10.6852018 7.91260391e-13,10.2395013 7.91260391e-13,9.84050406 C7.91260391e-13,9.17091398 0.879815861,8.53074596 2.63944758,7.92 L21.1210287,0.48 C22.2961487,-0.113147955 23.1358058,-0.153147955 23.64,0.36 Z M22.08,1.92 L1.86219678,10.0080093 L6.24012823,14.3776804 L18.6020314,5.39009786 L9.59444041,17.6817828 L13.9582567,22.0851882 L22.08,1.92 Z" id="Shadow"></path>
                    <path d="M23.64,0.36 C24.1531869,0.749484381 24.1131869,1.58948438 23.52,2.88 L15.3546912,23.040468 C15.0694896,23.680156 14.6712592,24 14.16,24 C13.722317,24 13.3538298,23.8409875 13.0545384,23.5229626 L8.63269869,19.0967914 C8.07172321,18.5691402 7.80820832,18.1038918 7.84215403,17.7010459 C7.84215403,17.311106 8.02838693,16.9307574 8.40085272,16.56 L11.52,12.48 L7.44,15.6 C6.85663337,16.0354296 6.37824689,16.2124058 6.00484057,16.1309286 C5.62893767,16.0258977 5.13102334,15.6393058 4.51109757,14.9711528 L0.721262707,11.1776054 C0.240420902,10.6852018 7.91260391e-13,10.2395013 7.91260391e-13,9.84050406 C7.91260391e-13,9.17091398 0.879815861,8.53074596 2.63944758,7.92 L21.1210287,0.48 C22.2961487,-0.113147955 23.1358058,-0.153147955 23.64,0.36 Z M22.08,1.92 L1.86219678,10.0080093 L6.24012823,14.3776804 L18.6020314,5.39009786 L9.59444041,17.6817828 L13.9582567,22.0851882 L22.08,1.92 Z" id="Colour" fill="#000000"></path>
                </g>
            </g>
        </g>
    </g>
</svg>