<?xml version="1.0" encoding="UTF-8"?>
<svg width="100px" height="100px" viewBox="0 0 100 100" version="1.1" xmlns="http://www.w3.org/2000/svg" xmlns:xlink="http://www.w3.org/1999/xlink">
    <title>Star Border</title>
    <g id="Design" stroke="none" stroke-width="1" fill="none" fill-rule="evenodd">
        <g id="Star-Border" fill="#000000">
            <path d="M50,2 C52.0503377,2 53.5170043,3.22110187 54.4,5.6633056 L65.284127,27.8203205 C65.9601029,29.3363884 66.5293026,30.236141 66.9917262,30.5195781 C67.4122039,31.0723611 68.4140088,31.4380906 69.9971406,31.6167667 L96,35.43127 C98.6666667,35.8271172 100,37.3128254 100,39.8883946 C99.9332511,40.8164288 99.5999178,41.6435132 99,42.3696477 L78.9306946,62.0549718 C78.3204996,62.7611561 77.9518449,63.4324547 77.8247302,64.0688676 C77.6817969,64.5365929 77.6817969,65.2085066 77.8247302,66.0846087 L82.3140562,92.2934892 C82.8093386,94.2284245 82.3713199,95.7866043 81,96.9680284 C79.5044231,98.2233784 77.8377564,98.3334181 76,97.2981475 L53.1380847,85.2287584 C51.932757,84.4797764 50.8867287,84.1052855 50,84.1052855 L49.7925425,84.1119332 C49.0214964,84.1606835 48.1363955,84.4775605 47.1372401,85.0625642 L46.8619153,85.2287584 L24,97.2981475 C22.1622436,98.3334181 20.4955769,98.2233784 19,96.9680284 C17.6883027,95.8379705 17.2305143,94.3632062 17.6266346,92.5437355 L17.6859438,92.2934892 L22.1752698,66.0846087 C22.3182031,65.2085066 22.3182031,64.5365929 22.1752698,64.0688676 C22.062279,63.5031672 21.7584417,62.9099029 21.2637578,62.2890745 L21.0693054,62.0549718 L1,42.3696477 C0.400082226,41.6435132 0.0667488928,40.8164288 0,39.8883946 C0,37.3959083 1.24869927,35.9241035 3.74609781,35.47298 L4,35.43127 L30.0028594,31.6167667 C31.5859912,31.4380906 32.5877961,31.0723611 33.0082738,30.5195781 C33.441796,30.2538558 33.9691643,29.44645 34.5903788,28.0973608 L34.715873,27.8203205 L45.6,5.6633056 C46.4514601,3.30832343 47.8456449,2.08877909 49.7825544,2.00467258 L50,2 Z M50.00206,14.8594409 L50.001,14.8624409 L50,14.8594409 L49.999,14.8654409 L41.5940032,31.9952026 L41.4128967,32.3827853 C40.5435754,34.1734507 39.3360491,35.7113595 37.7903177,36.996512 C36.052666,38.4113826 33.7601816,39.2713708 30.9128645,39.5764765 L30.9128645,39.5764765 L12.35,42.2953553 L25.3019951,54.9974651 L25.6319672,55.2998758 C27.9001113,57.416271 29.2933847,59.5225968 29.8117872,61.6188532 C30.3884206,63.6939372 30.4396906,65.8202394 29.9655972,67.9977598 L29.9655972,67.9977598 L26.7415978,86.8024435 L44.007296,77.6523563 L44.4126095,77.4514754 C46.1765513,76.6110355 48.0390955,76.1611658 50.0010038,76.1018421 C52.1132476,76.1655655 54.1111677,76.6824035 55.994764,77.6523563 L55.994764,77.6523563 L73.2604623,86.8024435 L70.0364628,67.9977598 C69.5623694,65.8202394 69.6136394,63.6939372 70.1902728,61.6188532 C70.7333612,59.4227751 72.2366252,57.2156458 74.7000649,54.9974651 L74.7000649,54.9974651 L87.65206,42.2953553 L69.0891955,39.5764765 C66.2418784,39.2713708 63.9493941,38.4113826 62.2117424,36.996512 C60.5556015,35.6195629 59.2877064,33.9524598 58.4080568,31.9952026 L58.4080568,31.9952026 L50.002,14.8654409 L50.00206,14.8594409 Z" id="Shadow"></path>
            <path d="M50,2 C52.0503377,2 53.5170043,3.22110187 54.4,5.6633056 L65.284127,27.8203205 C65.9601029,29.3363884 66.5293026,30.236141 66.9917262,30.5195781 C67.4122039,31.0723611 68.4140088,31.4380906 69.9971406,31.6167667 L96,35.43127 C98.6666667,35.8271172 100,37.3128254 100,39.8883946 C99.9332511,40.8164288 99.5999178,41.6435132 99,42.3696477 L78.9306946,62.0549718 C78.3204996,62.7611561 77.9518449,63.4324547 77.8247302,64.0688676 C77.6817969,64.5365929 77.6817969,65.2085066 77.8247302,66.0846087 L82.3140562,92.2934892 C82.8093386,94.2284245 82.3713199,95.7866043 81,96.9680284 C79.5044231,98.2233784 77.8377564,98.3334181 76,97.2981475 L53.1380847,85.2287584 C51.932757,84.4797764 50.8867287,84.1052855 50,84.1052855 L49.7925425,84.1119332 C49.0214964,84.1606835 48.1363955,84.4775605 47.1372401,85.0625642 L46.8619153,85.2287584 L24,97.2981475 C22.1622436,98.3334181 20.4955769,98.2233784 19,96.9680284 C17.6883027,95.8379705 17.2305143,94.3632062 17.6266346,92.5437355 L17.6859438,92.2934892 L22.1752698,66.0846087 C22.3182031,65.2085066 22.3182031,64.5365929 22.1752698,64.0688676 C22.062279,63.5031672 21.7584417,62.9099029 21.2637578,62.2890745 L21.0693054,62.0549718 L1,42.3696477 C0.400082226,41.6435132 0.0667488928,40.8164288 0,39.8883946 C0,37.3959083 1.24869927,35.9241035 3.74609781,35.47298 L4,35.43127 L30.0028594,31.6167667 C31.5859912,31.4380906 32.5877961,31.0723611 33.0082738,30.5195781 C33.441796,30.2538558 33.9691643,29.44645 34.5903788,28.0973608 L34.715873,27.8203205 L45.6,5.6633056 C46.4514601,3.30832343 47.8456449,2.08877909 49.7825544,2.00467258 L50,2 Z M50.00206,14.8594409 L50.001,14.8624409 L50,14.8594409 L49.999,14.8654409 L41.5940032,31.9952026 L41.4128967,32.3827853 C40.5435754,34.1734507 39.3360491,35.7113595 37.7903177,36.996512 C36.052666,38.4113826 33.7601816,39.2713708 30.9128645,39.5764765 L30.9128645,39.5764765 L12.35,42.2953553 L25.3019951,54.9974651 L25.6319672,55.2998758 C27.9001113,57.416271 29.2933847,59.5225968 29.8117872,61.6188532 C30.3884206,63.6939372 30.4396906,65.8202394 29.9655972,67.9977598 L29.9655972,67.9977598 L26.7415978,86.8024435 L44.007296,77.6523563 L44.4126095,77.4514754 C46.1765513,76.6110355 48.0390955,76.1611658 50.0010038,76.1018421 C52.1132476,76.1655655 54.1111677,76.6824035 55.994764,77.6523563 L55.994764,77.6523563 L73.2604623,86.8024435 L70.0364628,67.9977598 C69.5623694,65.8202394 69.6136394,63.6939372 70.1902728,61.6188532 C70.7333612,59.4227751 72.2366252,57.2156458 74.7000649,54.9974651 L74.7000649,54.9974651 L87.65206,42.2953553 L69.0891955,39.5764765 C66.2418784,39.2713708 63.9493941,38.4113826 62.2117424,36.996512 C60.5556015,35.6195629 59.2877064,33.9524598 58.4080568,31.9952026 L58.4080568,31.9952026 L50.002,14.8654409 L50.00206,14.8594409 Z" id="Colour"></path>
        </g>
    </g>
</svg>