<?xml version="1.0" encoding="UTF-8"?>
<svg width="100px" height="100px" viewBox="0 0 100 100" version="1.1" xmlns="http://www.w3.org/2000/svg" xmlns:xlink="http://www.w3.org/1999/xlink">
    <title>Star</title>
    <g id="Design" stroke="none" stroke-width="1" fill="none" fill-rule="evenodd">
        <g id="Star" fill="#000000">
            <path d="M49.7925425,84.1119332 C48.9514013,84.1651154 47.9745255,84.5373904 46.8619153,85.2287584 L46.8619153,85.2287584 L24,97.2981475 C22.1622436,98.3334181 20.4955769,98.2233784 19,96.9680284 C17.6286801,95.7866043 17.1906614,94.2284245 17.6859438,92.2934892 L17.6859438,92.2934892 L22.1752698,66.0846087 C22.3182031,65.2085066 22.3182031,64.5365929 22.1752698,64.0688676 C22.0481551,63.4324547 21.6795004,62.7611561 21.0693054,62.0549718 L21.0693054,62.0549718 L1,42.3696477 C0.400082226,41.6435132 0.0667488928,40.8164288 0,39.8883946 C0,37.3128254 1.33333333,35.8271172 4,35.43127 L4,35.43127 L30.0028594,31.6167667 C31.5859912,31.4380906 32.5877961,31.0723611 33.0082738,30.5195781 C33.4706974,30.236141 34.0398971,29.3363884 34.715873,27.8203205 L34.715873,27.8203205 L45.6,5.6633056 C46.4829957,3.22110187 47.9496623,2 50,2 L50,2 C52.0503377,2 53.5170043,3.22110187 54.4,5.6633056 L65.284127,27.8203205 C65.9601029,29.3363884 66.5293026,30.236141 66.9917262,30.5195781 C67.4122039,31.0723611 68.4140088,31.4380906 69.9971406,31.6167667 L96,35.43127 C98.6666667,35.8271172 100,37.3128254 100,39.8883946 C99.9332511,40.8164288 99.5999178,41.6435132 99,42.3696477 L78.9306946,62.0549718 C78.3204996,62.7611561 77.9518449,63.4324547 77.8247302,64.0688676 C77.6817969,64.5365929 77.6817969,65.2085066 77.8247302,66.0846087 L82.3140562,92.2934892 C82.8093386,94.2284245 82.3713199,95.7866043 81,96.9680284 C79.5044231,98.2233784 77.8377564,98.3334181 76,97.2981475 L53.1380847,85.2287584 C51.932757,84.4797764 50.8867287,84.1052855 50,84.1052855 Z" id="Shadow"></path>
            <path d="M49.7925425,84.1119332 C48.9514013,84.1651154 47.9745255,84.5373904 46.8619153,85.2287584 L46.8619153,85.2287584 L24,97.2981475 C22.1622436,98.3334181 20.4955769,98.2233784 19,96.9680284 C17.6286801,95.7866043 17.1906614,94.2284245 17.6859438,92.2934892 L17.6859438,92.2934892 L22.1752698,66.0846087 C22.3182031,65.2085066 22.3182031,64.5365929 22.1752698,64.0688676 C22.0481551,63.4324547 21.6795004,62.7611561 21.0693054,62.0549718 L21.0693054,62.0549718 L1,42.3696477 C0.400082226,41.6435132 0.0667488928,40.8164288 0,39.8883946 C0,37.3128254 1.33333333,35.8271172 4,35.43127 L4,35.43127 L30.0028594,31.6167667 C31.5859912,31.4380906 32.5877961,31.0723611 33.0082738,30.5195781 C33.4706974,30.236141 34.0398971,29.3363884 34.715873,27.8203205 L34.715873,27.8203205 L45.6,5.6633056 C46.4829957,3.22110187 47.9496623,2 50,2 L50,2 C52.0503377,2 53.5170043,3.22110187 54.4,5.6633056 L65.284127,27.8203205 C65.9601029,29.3363884 66.5293026,30.236141 66.9917262,30.5195781 C67.4122039,31.0723611 68.4140088,31.4380906 69.9971406,31.6167667 L96,35.43127 C98.6666667,35.8271172 100,37.3128254 100,39.8883946 C99.9332511,40.8164288 99.5999178,41.6435132 99,42.3696477 L78.9306946,62.0549718 C78.3204996,62.7611561 77.9518449,63.4324547 77.8247302,64.0688676 C77.6817969,64.5365929 77.6817969,65.2085066 77.8247302,66.0846087 L82.3140562,92.2934892 C82.8093386,94.2284245 82.3713199,95.7866043 81,96.9680284 C79.5044231,98.2233784 77.8377564,98.3334181 76,97.2981475 L53.1380847,85.2287584 C51.932757,84.4797764 50.8867287,84.1052855 50,84.1052855 Z" id="Colour"></path>
        </g>
    </g>
</svg>